<?xml version="1.0" encoding="utf-8"?><svg viewBox="0 0 32 32" xmlns="http://www.w3.org/2000/svg" xmlns:xlink="http://www.w3.org/1999/xlink"><style>:root>svg{display:none}:root>svg:target{display:block}</style><svg viewBox="0 0 40 40" id="location" xmlns="http://www.w3.org/2000/svg"><path fill="none" d="M0 0h40v40H0z"/><path d="M31.294 15a11.234 11.234 0 01-1.511 5.647L20 35.471l-9.783-14.824A11.3 11.3 0 1131.295 15zm-5.647 0A5.647 5.647 0 1020 20.647 5.646 5.646 0 0025.647 15z" fill="rgba(29,149,175,0.08)"/><path d="M9.627 21.036l9.784 14.824a.707.707 0 001.179 0L30.395 21a12 12 0 10-20.79 0 .313.313 0 00.022.036zM20 4.412a10.593 10.593 0 019.194 15.846L20 34.189l-9.183-13.913A10.592 10.592 0 0120 4.412z" fill="#1d95af"/><path d="M20 21.353A6.353 6.353 0 1013.647 15 6.36 6.36 0 0020 21.353zm0-11.294A4.941 4.941 0 1115.059 15 4.947 4.947 0 0120 10.059z" fill="#1d95af"/></svg><svg viewBox="0 0 61 61" id="phone" xmlns="http://www.w3.org/2000/svg"><g transform="translate(-105.237 2.724)"><circle cx="30.5" cy="30.5" r="30.5" transform="translate(105.237 -2.724)" fill="#f7f7f7"/><path d="M147.55 33.51l-4.19-.478a3.284 3.284 0 00-2.705.94l-3.035 3.035a24.818 24.818 0 01-10.87-10.87l3.052-3.052a3.284 3.284 0 00.94-2.705l-.479-4.157a3.3 3.3 0 00-3.283-2.92h-2.854a3.274 3.274 0 00-3.3 3.415 28.028 28.028 0 0026.213 26.211 3.274 3.274 0 003.415-3.3v-2.853a3.269 3.269 0 00-2.904-3.266z" fill="#0094ae" fill-rule="evenodd"/></g></svg><svg viewBox="0 0 55.386 55.386" id="whatsapp" xmlns="http://www.w3.org/2000/svg"><path d="M27.685 0A27.675 27.675 0 005.273 43.924L1.822 54.213l10.644-3.4A27.688 27.688 0 1027.7 0h-.016zm-7.731 14.067c-.537-1.286-.944-1.335-1.757-1.368a15.726 15.726 0 00-.928-.032 4.017 4.017 0 00-2.832.993 8.843 8.843 0 00-2.832 6.74c0 3.973 2.9 7.815 3.288 8.352.407.537 5.648 8.807 13.786 12.178 6.364 2.637 8.252 2.393 9.7 2.084 2.116-.456 4.769-2.019 5.436-3.907a6.876 6.876 0 00.472-3.843c-.2-.342-.733-.537-1.546-.944s-4.769-2.361-5.518-2.621a1.545 1.545 0 00-1.985.6 33.957 33.957 0 01-2.165 2.865 1.75 1.75 0 01-1.953.309 20.407 20.407 0 01-6.494-4.005 24.64 24.64 0 01-4.492-5.583c-.472-.814-.049-1.287.325-1.726.407-.5.8-.863 1.2-1.335a4.855 4.855 0 00.9-1.27 1.652 1.652 0 00-.114-1.5c-.196-.403-1.824-4.376-2.491-5.987z" fill="#2cd180" fill-rule="evenodd"/></svg></svg>