<svg xmlns="http://www.w3.org/2000/svg" width="121.419" height="16"><path d="M15.862.414c0-.3-.093-.412-.407-.408-1.294.014-2.589.023-3.883 0-.411-.009-.481.142-.479.509.015 2.457.014 4.914.01 7.371a3.186 3.186 0 01-6.2 1.028 3.77 3.77 0 01-.077-.256h-.18a3.382 3.382 0 003.422 2.6 3.316 3.316 0 003.187-3.313c.034-2.383.014-4.767.019-7.15 0-.164.022-.328.035-.521a.7.7 0 01.455.745c-.006 2.3.009 4.59 0 6.885a3.843 3.843 0 01-7.49 1.2 4.6 4.6 0 01-.12-.445h-.18a4.043 4.043 0 004.072 3.258 3.964 3.964 0 003.859-3.885c.037-2.177.015-4.355.021-6.532 0-.166.015-.332.024-.5l.173-.047a1.921 1.921 0 01.281.654c.021 2.163.043 4.326 0 6.488a4.492 4.492 0 01-8.917.562h-.165c0 .019.006.038.009.057a4.652 4.652 0 009.232-.689c.044-1.956.016-3.914.023-5.87 0-.16.026-.321.04-.481l.194-.031a2.782 2.782 0 01.239.764q.034 2.758.008 5.517a5.3 5.3 0 01-.194 1.391 5.145 5.145 0 01-9.926-.071 7.322 7.322 0 01-.132-.587h-.167a4.632 4.632 0 00.083.5 5.373 5.373 0 005.622 4.059 5.291 5.291 0 004.862-5.154c.028-1.736.012-3.472.016-5.208v-.47h.494v.5c0 1.618.024 3.237-.011 4.855a7.617 7.617 0 01-.26 1.865 5.792 5.792 0 01-11.013.231 10.635 10.635 0 01-.294-1.177H1.97a5.976 5.976 0 0011.9-.6c.036-1.853.02-3.708.016-5.561a.858.858 0 01.492-.876v5.988a8.339 8.339 0 01-.046 1.145 6.468 6.468 0 01-12.682.739 16.796 16.796 0 01-.16-.834h-.158a8.725 8.725 0 00.184.97 6.625 6.625 0 0013.021-1.591c0-2.089.01-4.178.007-6.268a.779.779 0 01.452-.8 2.558 2.558 0 01.043.32c0 2.251.015 4.5 0 6.753a6.676 6.676 0 01-.182 1.485 7.118 7.118 0 01-13.866.014 9.97 9.97 0 01-.161-.878H.674c.011.1.022.2.037.3a7.286 7.286 0 0013.7 2.262 7.857 7.857 0 00.8-3.709c-.019-2.148 0-4.3-.008-6.444a.81.81 0 01.5-.823v.521c0 2.325.008 4.65 0 6.974a9.611 9.611 0 01-.13 1.579 7.761 7.761 0 01-10.164 5.924A7.615 7.615 0 01.183 8.66H.018a7.068 7.068 0 00.119.807 7.94 7.94 0 0015.715-1.19c.065-2.617.017-5.237.028-7.856" fill="#1f4080"/><path d="M9.326 7.925A1.337 1.337 0 007.947 6.45a1.457 1.457 0 00-1.5 1.406 1.44 1.44 0 001.468 1.48 1.347 1.347 0 001.408-1.411" fill="#fff"/><path d="M15.862.414c0-.3-.093-.412-.407-.408-1.294.014-2.589.023-3.883 0-.411-.009-.481.142-.479.509.015 2.457.014 4.914.01 7.371a3.186 3.186 0 01-6.2 1.028 3.77 3.77 0 01-.077-.256h-.18a3.382 3.382 0 003.422 2.6 3.316 3.316 0 003.187-3.313c.034-2.383.014-4.767.019-7.15 0-.164.022-.328.035-.521a.7.7 0 01.455.745c-.006 2.3.009 4.59 0 6.885a3.843 3.843 0 01-7.49 1.2 4.6 4.6 0 01-.12-.445h-.18a4.043 4.043 0 004.072 3.258 3.964 3.964 0 003.859-3.885c.037-2.177.015-4.355.021-6.532 0-.166.015-.332.024-.5l.173-.047a1.921 1.921 0 01.281.654c.021 2.163.043 4.326 0 6.488a4.492 4.492 0 01-8.917.562h-.165c0 .019.006.038.009.057a4.652 4.652 0 009.232-.689c.044-1.956.016-3.914.023-5.87 0-.16.026-.321.04-.481l.194-.031a2.782 2.782 0 01.239.764q.034 2.758.008 5.517a5.3 5.3 0 01-.194 1.391 5.145 5.145 0 01-9.926-.071 7.322 7.322 0 01-.132-.587h-.167a4.632 4.632 0 00.083.5 5.373 5.373 0 005.622 4.059 5.291 5.291 0 004.862-5.154c.028-1.736.012-3.472.016-5.208v-.47h.494v.5c0 1.618.024 3.237-.011 4.855a7.617 7.617 0 01-.26 1.865 5.792 5.792 0 01-11.013.231 10.635 10.635 0 01-.294-1.177H1.97a5.976 5.976 0 0011.9-.6c.036-1.853.02-3.708.016-5.561a.858.858 0 01.492-.876v5.988a8.339 8.339 0 01-.046 1.145 6.468 6.468 0 01-12.682.739 16.796 16.796 0 01-.16-.834h-.158a8.725 8.725 0 00.184.97 6.625 6.625 0 0013.021-1.591c0-2.089.01-4.178.007-6.268a.779.779 0 01.452-.8 2.558 2.558 0 01.043.32c0 2.251.015 4.5 0 6.753a6.676 6.676 0 01-.182 1.485 7.118 7.118 0 01-13.866.014 9.97 9.97 0 01-.161-.878H.674c.011.1.022.2.037.3a7.286 7.286 0 0013.7 2.262 7.857 7.857 0 00.8-3.709c-.019-2.148 0-4.3-.008-6.444a.81.81 0 01.5-.823v.521c0 2.325.008 4.65 0 6.974a9.611 9.611 0 01-.13 1.579 7.761 7.761 0 01-10.164 5.924A7.615 7.615 0 01.183 8.66H.018a7.068 7.068 0 00.119.807 7.94 7.94 0 0015.715-1.19c.065-2.617.017-5.237.028-7.856" fill="#1f4080"/><path d="M9.326 7.925a1.347 1.347 0 01-1.408 1.411 1.44 1.44 0 01-1.468-1.48 1.457 1.457 0 011.5-1.406 1.337 1.337 0 011.379 1.475" fill="#ed1c24"/><path d="M11.132.181l2.345 2.984L15.803.181M72.82 9.223c-1.715.044-3.432.018-5.149.007a.416.416 0 01-.323-.221c-.062-.241.122-.277.325-.277 1.7 0 3.4.03 5.1-.015a3.757 3.757 0 003.394-2.133 4.028 4.028 0 00-3.5-5.913c-1.6-.027-3.2-.007-4.794-.007h-.486c-.108-.377-.007-.505.321-.5 1.716.011 3.434-.028 5.149.021a4.526 4.526 0 01-.032 9.041M67.67 6.773c1.582-.015 3.164-.014 4.746-.008a2.247 2.247 0 001.42-.4 2.051 2.051 0 00-1.158-3.71h-2.491c-.828 0-1.656.01-2.484-.011a.458.458 0 01-.355-.233c-.065-.253.147-.262.337-.262 1.671 0 3.342-.018 5.013.011a2.548 2.548 0 01.089 5.084c-1.713.054-3.43.024-5.145.012-.1 0-.2-.163-.3-.251.11-.081.22-.231.331-.232m5.877-3.087a1.916 1.916 0 00-1.006-.363c-1.554-.038-3.109-.017-4.663-.017h-.494c-.123-.415.02-.513.355-.511 1.6.012 3.2 0 4.8.011a1.9 1.9 0 11.019 3.793c-1.716.012-3.432 0-5.16 0-.124-.342-.07-.51.324-.508q2.443.014 4.885 0a1.365 1.365 0 001.314-.882 1.3 1.3 0 00-.376-1.528m-5.807 1.754h4.705a.781.781 0 00.838-.444c.227-.542-.127-1.026-.767-1.03-1.509-.009-3.018 0-4.527 0h-.6c-.126-.393 0-.506.34-.5 1.6.011 3.2 0 4.794.011a1.225 1.225 0 011.318 1.248 1.242 1.242 0 01-1.355 1.224q-2.375.01-4.749 0c-.174 0-.411.082-.411-.243 0-.308.216-.26.4-.26m0-1.319h4.744c.363 0 .646.123.682.535a.543.543 0 01-.461.608.675.675 0 01-.176.014h-5.009a.691.691 0 01-.145-.036c-.115-.39.063-.464.379-.462 1.448.009 2.9 0 4.344 0 .15 0 .3-.019.45-.029 0-.043 0-.086-.007-.128h-4.785c-.174 0-.411.082-.408-.244 0-.306.218-.259.4-.259m4.954-2.128c-1.6-.017-3.2 0-4.8 0h-.5c-.128-.338-.083-.512.317-.51 1.658.011 3.316-.011 4.973.015a3.21 3.21 0 010 6.419c-1.759.028-3.519.006-5.3.006-.121-.372-.026-.508.33-.505q2.4.018 4.8 0a2.714 2.714 0 10.177-5.425m-5.357-.922c.011-.346.275-.244.459-.245 1.613 0 3.227-.012 4.84 0a3.872 3.872 0 012.387 6.9 3.239 3.239 0 01-1.937.8c-1.892.044-3.786.015-5.7.015-.124-.379.024-.476.355-.474q2.376.015 4.752 0a3.376 3.376 0 00.262-6.747c-1.658-.026-3.316 0-4.973-.01-.181 0-.453.105-.441-.254" fill="#1f4080"/><path d="M67.484 5.131a.166.166 0 00.032.008h5.02a.553.553 0 00.129-.009c.352-.1.374-.312.361-.465-.025-.287-.188-.41-.546-.41h-4.815c-.063 0-.151 0-.174.018-.005.005-.023.028-.024.106a.169.169 0 00.019.1c.017.017.1.011.151.007h5.023l.023.392-.135.009-.14.011c-.1.009-.21.018-.318.018h-4.346c-.183 0-.243.028-.261.052s-.027.054 0 .165m.12.441a.2.2 0 00-.112.019.169.169 0 00-.023.107c0 .067.013.1.02.1s.1.011.153.008c.033 0 .067-.005.1 0 1.509 0 3.119.007 4.749 0a1.1 1.1 0 001.212-1.088 1.055 1.055 0 00-.293-.77 1.238 1.238 0 00-.888-.34c-.792-.005-1.6-.005-2.377-.005s-1.611 0-2.417-.006c-.172 0-.221.031-.235.05s-.028.058 0 .181h5.02a.984.984 0 01.841.4.859.859 0 01.051.817.919.919 0 01-.964.528h-4.833m-.109.892h5.06a1.761 1.761 0 10-.019-3.52 169.49 169.49 0 00-2.365 0c-.8 0-1.621 0-2.431-.006-.171 0-.226.027-.244.051s-.03.06 0 .187h1.616c1.125 0 2.289-.008 3.434.02a2.052 2.052 0 011.083.389 1.439 1.439 0 01.424 1.686 1.5 1.5 0 01-1.441.971c-1.558.01-3.157.009-4.887 0h-.007c-.176 0-.218.039-.226.051s-.025.058.01.184m.151.652l.9.008c1.389.012 2.824.024 4.234-.02a2.343 2.343 0 002.236-2.462 2.376 2.376 0 00-2.318-2.351c-1.129-.02-2.278-.017-3.39-.013h-1.621a.443.443 0 00-.211.027.143.143 0 00.007.064.371.371 0 00.226.131c.613.015 1.237.014 1.84.012h3.129a2.188 2.188 0 011.236 3.955 2.353 2.353 0 01-1.5.431c-1.863-.008-3.37-.005-4.744.008a.506.506 0 00-.134.1.614.614 0 00.112.106m-.154.663h1.526c1.2 0 2.45.009 3.67-.01a3.073 3.073 0 000-6.145c-.982-.016-1.98-.014-2.946-.013h-2.025c-.184 0-.224.038-.233.05s-.024.058.014.186h1.863c1.093 0 2.223-.005 3.335.006a2.851 2.851 0 11-.178 5.7c-1.531.009-3.145.008-4.8 0-.173 0-.217.034-.228.049s-.028.059 0 .183m-.007.633h1.534c1.333.006 2.713.012 4.062-.019a3.1 3.1 0 001.854-.774 3.735 3.735 0 00-2.3-6.662 304.232 304.232 0 00-4.481 0h-.358c-.039 0-.08 0-.119-.007-.063-.006-.15-.014-.176.008a.174.174 0 00-.028.112c0 .093.018.114.019.115.02.019.111.01.166 0 .039 0 .08-.008.12-.008h1.866c1.019 0 2.073-.005 3.109.011a3.385 3.385 0 012.736 1.486 3.516 3.516 0 01-3 5.534c-1.49.008-3.045.006-4.753 0-.18 0-.232.031-.247.051s-.025.047 0 .15m.188.456c-.166 0-.193.03-.2.033s-.008.025 0 .073a.329.329 0 00.192.118l.9.007c1.392.011 2.831.022 4.244-.014a4.236 4.236 0 002.97-1.341A4.391 4.391 0 0072.855.332 97.572 97.572 0 0069.569.31c-.609 0-1.24.005-1.86 0-.148 0-.194.028-.208.046s-.03.059-.005.183h1.835c1.1 0 2.23-.008 3.345.01a4.165 4.165 0 013.623 6.113 3.9 3.9 0 01-3.512 2.206c-1.246.033-2.512.026-3.737.02h-1.371zm2.966.516c-.7 0-1.387-.005-2.068-.011l-.9-.007a.539.539 0 01-.455-.323.345.345 0 01.045-.309.286.286 0 01.048-.048h-.027l-.031-.095a.549.549 0 01.016-.49.326.326 0 01.044-.049h-.022l-.031-.095a.586.586 0 01.011-.523.359.359 0 01.178-.125 1.268 1.268 0 01-.117-.117 1.07 1.07 0 00-.084-.087l-.13-.112.139-.1a1.08 1.08 0 00.092-.081c.027-.025.054-.05.083-.074h-.129l-.033-.09a.579.579 0 01-.005-.524.324.324 0 01.089-.085.32.32 0 01-.048-.036.392.392 0 01-.107-.3.4.4 0 01.105-.3.275.275 0 01.028-.024l-.068-.018-.022-.074a.523.523 0 01.03-.476.34.34 0 01.087-.081.29.29 0 01-.055-.041.393.393 0 01-.105-.305.415.415 0 01.091-.284l-.028-.088a.594.594 0 01.013-.521.287.287 0 01.037-.042h-.027l-.029-.1a.607.607 0 01.023-.527.363.363 0 01.175-.122.477.477 0 01-.233-.256.335.335 0 01.042-.3.275.275 0 01.035-.037l-.025-.066a.58.58 0 01-.013-.527.321.321 0 01.089-.086.286.286 0 01-.044-.034.4.4 0 01-.105-.323.446.446 0 01.081-.266l-.027-.1a.609.609 0 01.026-.523.515.515 0 01.428-.155h1.857c1.08 0 2.2-.009 3.295.022a4.664 4.664 0 013.129 7.889 4.508 4.508 0 01-3.161 1.425c-.725.019-1.457.025-2.185.025" fill="#1f4080"/><path d="M67.38.665c-.108-.377-.007-.505.321-.5 1.716.011 3.434-.028 5.149.021a4.526 4.526 0 01-.032 9.042c-1.715.044-3.432.018-5.149.007a.417.417 0 01-.323-.221c-.062-.242.122-.277.325-.277 1.7 0 3.4.03 5.1-.015a3.757 3.757 0 003.394-2.133 4.028 4.028 0 00-3.5-5.913c-1.6-.027-3.2-.006-4.794-.007h-.491" fill="#1f4080"/><path d="M67.673 8.867c-.166 0-.193.03-.2.033a.119.119 0 000 .073.33.33 0 00.192.118l.9.007c1.392.011 2.831.022 4.244-.014a4.236 4.236 0 002.97-1.341A4.391 4.391 0 0072.841.316a97.572 97.572 0 00-3.286-.022c-.61 0-1.24.005-1.86 0h-.007c-.144 0-.188.029-.2.046s-.03.059-.005.183h1.836c1.1 0 2.23-.008 3.345.01a4.165 4.165 0 013.623 6.113 3.9 3.9 0 01-3.512 2.206c-1.246.033-2.512.026-3.737.02h-1.371zm2.966.516c-.7 0-1.387-.005-2.068-.011l-.9-.007a.538.538 0 01-.455-.323.344.344 0 01.044-.309.506.506 0 01.412-.139h1.373c1.223.006 2.487.013 3.728-.02a3.639 3.639 0 003.277-2.06A3.892 3.892 0 0072.664.802a162.023 162.023 0 00-3.339-.011h-2.047l-.029-.1a.609.609 0 01.026-.523.515.515 0 01.427-.155h1.857c1.08 0 2.2-.009 3.294.022a4.664 4.664 0 013.129 7.889 4.508 4.508 0 01-3.162 1.425c-.725.019-1.457.025-2.185.025" fill="#1f4080"/><path d="M67.384 8.55c-.123-.379.024-.476.355-.474q2.376.015 4.751 0a3.376 3.376 0 00.262-6.747c-1.657-.026-3.316 0-4.973-.01-.181 0-.453.105-.441-.254s.276-.244.459-.245c1.613 0 3.227-.012 4.84 0a3.872 3.872 0 012.387 6.9 3.242 3.242 0 01-1.937.8c-1.892.044-3.786.015-5.7.015" fill="#1f4080"/><path d="M67.484 8.414h1.534c1.333.006 2.712.012 4.062-.019a3.094 3.094 0 001.855-.774 3.735 3.735 0 00-2.3-6.662 304.232 304.232 0 00-4.481 0h-.358c-.04 0-.08 0-.119-.007-.063-.006-.15-.014-.176.008a.178.178 0 00-.028.111c0 .093.018.114.019.115.02.019.111.01.166 0 .039 0 .078-.007.12-.007h1.866c1.019 0 2.073 0 3.109.011a3.383 3.383 0 012.736 1.487 3.516 3.516 0 01-3 5.534c-1.49.008-3.045.006-4.753 0-.181 0-.233.032-.247.051s-.025.047 0 .15m3.144.283h-3.348l-.03-.094a.436.436 0 01.485-.653c1.708.011 3.261.012 4.75 0a3.242 3.242 0 002.776-5.1 3.114 3.114 0 00-2.516-1.37 169.231 169.231 0 00-3.1-.011h-1.868c-.025 0-.058 0-.093.006a.459.459 0 01-.379-.078.5.5 0 01.015-.631.479.479 0 01.382-.076c.033 0 .065.006.092.006h.359c1.469 0 2.989-.009 4.484 0a4.009 4.009 0 012.472 7.148 3.357 3.357 0 01-2.02.834c-.815.019-1.64.024-2.458.024" fill="#1f4080"/><path d="M67.389 7.916c-.121-.372-.027-.508.33-.505q2.4.018 4.8 0a2.714 2.714 0 10.177-5.425c-1.6-.017-3.2 0-4.8 0h-.5c-.128-.338-.082-.512.317-.51 1.657.011 3.315-.011 4.973.015a3.21 3.21 0 010 6.419c-1.759.028-3.519.006-5.3.006" fill="#1f4080"/><path d="M67.492 7.779h1.526c1.2 0 2.45.009 3.67-.01a3.073 3.073 0 000-6.145c-.982-.016-1.981-.014-2.947-.013h-2.025c-.182 0-.224.038-.233.05s-.024.058.014.186h1.862c1.093 0 2.223-.005 3.335.006a2.851 2.851 0 11-.177 5.7c-1.531.009-3.145.008-4.8 0-.173 0-.217.034-.228.049s-.028.059 0 .183m3.13.282H67.29l-.031-.095a.586.586 0 01.011-.523.536.536 0 01.451-.161c1.651.012 3.264.014 4.794 0a2.545 2.545 0 002.648-2.224 2.559 2.559 0 00-2.472-2.927c-1.11-.012-2.239-.009-3.331-.007h-2.054l-.034-.088a.579.579 0 01-.012-.527.535.535 0 01.458-.168h2.023c.967 0 1.967 0 2.951.013a3.351 3.351 0 012.322 5.687 3.29 3.29 0 01-2.32 1.005c-.687.011-1.381.014-2.071.014" fill="#1f4080"/><path d="M70.19 2.648c-.828 0-1.656.01-2.484-.011a.457.457 0 01-.355-.233c-.065-.253.147-.262.337-.262 1.671 0 3.342-.018 5.013.011a2.548 2.548 0 01.084 5.087c-1.714.054-3.43.024-5.146.013-.1 0-.2-.163-.3-.251.11-.081.22-.231.331-.232 1.582-.015 3.165-.014 4.747-.008a2.244 2.244 0 001.42-.4 2.051 2.051 0 00-1.158-3.71h-2.484" fill="#1f4080"/><path d="M67.648 7.118l.9.008c1.389.012 2.824.024 4.234-.02a2.343 2.343 0 002.236-2.462A2.376 2.376 0 0072.7 2.293c-1.129-.02-2.278-.017-3.39-.014h-1.621a.421.421 0 00-.211.027.143.143 0 00.007.064.372.372 0 00.226.131c.617.015 1.246.013 1.854.012h3.115a2.188 2.188 0 011.235 3.955 2.357 2.357 0 01-1.5.431 341.832 341.832 0 00-4.745.008.518.518 0 00-.133.1.6.6 0 00.111.106m2.866.292c-.661 0-1.32-.006-1.968-.011l-.906-.007a.459.459 0 01-.308-.2 1.083 1.083 0 00-.084-.087l-.13-.112.139-.1a1.075 1.075 0 00.092-.081.5.5 0 01.318-.178c1.376-.013 2.885-.016 4.749-.008h.018a2.07 2.07 0 001.319-.377 1.914 1.914 0 00-1.081-3.463h-3.105c-.61 0-1.241 0-1.862-.012a.584.584 0 01-.484-.336.334.334 0 01.043-.3.522.522 0 01.427-.132h1.619c1.113 0 2.264-.006 3.4.014a2.649 2.649 0 012.587 2.619 2.734 2.734 0 01-.692 1.9 2.517 2.517 0 01-1.809.845 71.91 71.91 0 01-2.277.032" fill="#1f4080"/><path d="M67.38 3.304c-.123-.415.02-.513.355-.511 1.6.013 3.2 0 4.8.011a1.9 1.9 0 11.019 3.793c-1.716.013-3.432 0-5.16 0-.124-.342-.07-.511.324-.508q2.443.015 4.886 0a1.366 1.366 0 001.314-.882 1.3 1.3 0 00-.376-1.527 1.913 1.913 0 00-1.006-.363c-1.553-.038-3.108-.017-4.663-.017h-.493" fill="#1f4080"/><path d="M67.495 6.465h5.06a1.761 1.761 0 10-.019-3.52c-.788-.006-1.589-.006-2.365-.005-.8 0-1.621 0-2.431-.006-.169 0-.226.027-.244.051s-.03.061 0 .187h1.616c1.126 0 2.289-.008 3.434.02a2.054 2.054 0 011.083.388 1.439 1.439 0 01.424 1.686 1.505 1.505 0 01-1.441.971c-1.558.01-3.157.009-4.887 0h-.008c-.176 0-.218.039-.226.051s-.025.058.01.184m2.971.277h-3.17l-.032-.09a.578.578 0 01-.005-.524.538.538 0 01.459-.167c1.729.01 3.326.01 4.884 0a1.236 1.236 0 001.187-.794 1.166 1.166 0 00-.328-1.368 1.767 1.767 0 00-.929-.337c-1.141-.028-2.3-.024-3.426-.02h-1.829l-.029-.1a.607.607 0 01.023-.527.55.55 0 01.464-.16c.809.006 1.633.006 2.429.006h2.367a2.034 2.034 0 11.019 4.067c-.693 0-1.395.006-2.091.006" fill="#1f4080"/><path d="M67.387 3.963c-.126-.393 0-.506.34-.5 1.6.011 3.2 0 4.794.011a1.225 1.225 0 011.318 1.248 1.242 1.242 0 01-1.348 1.223c-1.583.007-3.166 0-4.749 0-.174 0-.411.082-.411-.243 0-.308.216-.26.4-.26h4.705a.781.781 0 00.838-.444c.227-.542-.127-1.026-.767-1.03-1.509-.009-3.018 0-4.527 0h-.6" fill="#1f4080"/><path d="M67.603 5.573a.205.205 0 00-.112.019.174.174 0 00-.022.108c0 .067.013.1.02.1s.1.011.152.007h.1c1.509 0 3.119.007 4.748 0a1.1 1.1 0 001.212-1.088 1.054 1.054 0 00-.294-.77 1.239 1.239 0 00-.888-.34c-.792-.005-1.6-.005-2.377 0s-1.611 0-2.417-.006c-.172 0-.221.03-.235.049s-.028.059 0 .181h5.02a.984.984 0 01.841.4.859.859 0 01.051.817.919.919 0 01-.965.528h-4.832m-.046.515a.356.356 0 01-.255-.085.393.393 0 01-.108-.3.4.4 0 01.106-.3.484.484 0 01.371-.1.512.512 0 00.063 0h4.714c.4 0 .6-.1.7-.361a.583.583 0 00-.027-.56.716.716 0 00-.614-.28 266.516 266.516 0 00-3.224 0h-2l-.03-.095a.593.593 0 01.014-.521.536.536 0 01.458-.161c.8.006 1.623.005 2.415.005s1.586 0 2.379.005a1.51 1.51 0 011.082.422 1.338 1.338 0 01.372.965 1.377 1.377 0 01-1.484 1.358c-1.63.007-3.241 0-4.75 0h-.181" fill="#1f4080"/><path fill="#ed1c24" d="M62.098 0h5.566v15.823h-5.566z"/><path d="M31.045.125l-.022 8.682a8.739 8.739 0 01-.489 3.086 6.5 6.5 0 01-1.4 2.265 5.656 5.656 0 01-2.154 1.4 9.109 9.109 0 01-5.617 0 5.658 5.658 0 01-2.154-1.4 6.507 6.507 0 01-1.4-2.265 8.879 8.879 0 01-.488-3.109V.147h3.73v8.55a4.366 4.366 0 00.8 2.931 3.472 3.472 0 004.663-.022 4.366 4.366 0 00.8-2.931V.127zm16.031 0v15.542h-3.664v-3.77q0-2.765.066-4.13a12.852 12.852 0 00.045-1.377h-.022l-.2.333c-.133.222-.288.466-.466.755s-.333.555-.489.8a3.161 3.161 0 00-.266.466l-1.821 3.109h-1.932l-1.821-3.109a3.24 3.24 0 00-.266-.466c-.156-.244-.311-.51-.489-.8s-.333-.533-.466-.755l-.2-.333h-.022a12.376 12.376 0 00.044 1.354q.067 1.366.067 4.13v3.8h-3.663V.125h3.508l2.908 4.707c.289.466.511.844.689 1.132s.311.511.4.689a3.363 3.363 0 00.2.355l.067.089h.022l.067-.089a3.3 3.3 0 00.2-.355c.089-.178.222-.4.4-.689s.4-.666.688-1.132L43.569.125zm6.661 7.172h-.022a2.615 2.615 0 001.71-.488 1.83 1.83 0 000-2.709 2.55 2.55 0 00-1.687-.488h-2.131v3.685zm.044-7.172h-.022a8.4 8.4 0 012.576.355 5.425 5.425 0 011.932 1.066 4.644 4.644 0 011.221 1.687 6.055 6.055 0 010 4.441 4.642 4.642 0 01-1.221 1.687 5.424 5.424 0 01-1.932 1.066 8.25 8.25 0 01-2.553.355h-2.2v4.885h-3.73V.125zm36.464 12.166v3.486H78.81V.235h11.3v3.482h-7.571V6.27h5.928v3.264h-5.928v2.753zm10.525-2.22l-1.155-3q-.133-.333-.266-.733c-.089-.267-.155-.511-.222-.733s-.133-.422-.177-.577l-.066-.244h-.022l-.066.222c-.044.155-.111.355-.178.577s-.133.466-.222.733-.177.511-.266.733l-1.11 3.02zm1.154 3.286h-6.151l-.888 2.42h-4l6.2-15.52h3.53l6.216 15.524h-4.019zm15.1 2.42l-4.774-6.483-1.31 1.31v5.149h-3.73V.212h3.73v5.861h.022l.111-.111.333-.333c.155-.155.355-.378.622-.644l1-1 3.775-3.752h4.574l-6.597 6.62 6.639 8.926z" fill="#1f4080"/></svg>