<svg xmlns="http://www.w3.org/2000/svg" width="152.314" height="48"><path d="M80.034 12.756v12.8h-8.485v2.671q-.176 2.7 2.358 2.69h7.544a3.3 3.3 0 002.882-1.36 5.045 5.045 0 00.8-1.7 8.11 8.11 0 00.262-2.3V10.003h-2.69q-2.376.112-2.671 2.753zm58.328-.001v12.8h-4.642V21.66a4.763 4.763 0 00-.219-1.826 2.937 2.937 0 00-.793-1.231 3.15 3.15 0 00-1.267-.68 5.565 5.565 0 00-1.634-.191h-4.192a3.69 3.69 0 01-1.318-.1 1.074 1.074 0 01-.629-.426 1 1 0 01-.106-.675 3.684 3.684 0 01.246-.848 8.9 8.9 0 01.438-.927c.168-.313.325-.618.461-.908l1.725-3.859h-5.921q-.317.646-.75 1.51c-.289.575-.583 1.189-.872 1.842s-.563 1.326-.821 2.018a12.3 12.3 0 00-.567 2.041 7.639 7.639 0 00-.113 1.94 3.689 3.689 0 00.532 1.685 3.862 3.862 0 001.372 1.283 6.584 6.584 0 002.409.743l6.636-.02v2.514h-15.384v-7.819H97.478v2.075a4.48 4.48 0 00.191 1.544 2.465 2.465 0 00.574.962 2.163 2.163 0 00.857.516 4.847 4.847 0 001.028.212h7.425v2.515h-14.25V9.995h-2.671a2.72 2.72 0 00-2.706 2.761l.086 18.163h51.758a3.3 3.3 0 002.882-1.364 5.212 5.212 0 00.813-1.7 7.959 7.959 0 00.27-2.3V10.003h-2.69c-1.588.086-2.488 1.005-2.683 2.752zm11.262-2.76q-2.375.123-2.671 2.761v18.163h2.671a2.678 2.678 0 002.69-2.741V9.999h-2.69z" fill="#4da2ba"/><path d="M73.863 37.296h-1.372l-.157.712h-.8l.885-3.929h1.514l.884 3.926h-.8zm-.551-2.557h-.277l-.4 1.865h1.076zM84.043 37.3v.7H81.81v-3.925h.8V37.3zm6.577-1.184h1.71v.7h-1.71zm10.257.317l-.532.051v1.517h-.8v-3.926h.8v1.717l.536-.051.641-1.662h.908l-.853 1.963.876 1.963h-.918zm10.562.864h-1.372l-.157.712h-.8l.884-3.926h1.514l.883 3.926h-.8zm-.551-2.557h-.277l-.4 1.865h1.076zm11.55-.665v3.926h-.8v-1.626h-1.463v1.627h-.8v-3.927h.8v1.6h1.462v-1.6zm10.375 0v3.926h-.8v-1.626h-1.458v1.627h-.8v-3.927h.8v1.6h1.463v-1.6zm9.323 3.222h-1.373l-.157.712h-.8l.883-3.926h1.514l.883 3.926h-.8zm-.551-2.557h-.278l-.4 1.865h1.076zm10.729 2.56v.7h-2.233v-3.925h.8V37.3z" fill="#aaaaac"/><path d="M55.211 0H14.074C7.508 0 0 3.089 0 13.44V48h41.106c4.411 0 14.1-1.987 14.1-13.264z" fill="#1d95af"/><g fill="#1d95af"><path d="M30.24 10.292C10.559 10.292.001 24.815.001 25.015c0 0 10.558 14.417 27.553 14.758.2.012.4.016.6.016a11.446 11.446 0 10-10.386-6.628 35.871 35.871 0 01-11.872-8.118 33.209 33.209 0 0124.538-10.237c13.283 0 22.5 8.775 24.784 11.746l3.469-2.874A37.532 37.532 0 0030.24 10.292zm-2.081 11.231a6.816 6.816 0 11-6.816 6.816 6.816 6.816 0 016.816-6.816z"/><path d="M28.018 28.312l-.61.058v1.74h-.915v-4.5h.915v1.967l.614-.059.735-1.908h1.04l-.982 2.25 1 2.25h-1.05z"/></g><g fill="#e2e9f3"><path d="M30.24 9.248C10.559 9.248.001 23.771.001 23.971c0 0 10.558 14.417 27.553 14.758.2.012.4.016.6.016a11.447 11.447 0 10-10.386-6.628 35.871 35.871 0 01-11.872-8.118 33.208 33.208 0 0124.538-10.237c13.283 0 22.5 8.775 24.784 11.746l3.469-2.874A37.532 37.532 0 0030.24 9.248zm-2.081 11.231a6.816 6.816 0 11-6.816 6.816 6.816 6.816 0 016.816-6.816z"/><path d="M28.018 27.743l-.61.058v1.74h-.915v-4.5h.915v1.967l.614-.059.735-1.908h1.04l-.982 2.25 1 2.25h-1.05z"/></g></svg>