<svg xmlns="http://www.w3.org/2000/svg" width="96" height="15.333"><defs><clipPath id="a"><path fill="none" d="M0 0h96v15.333H0z"/></clipPath></defs><g clip-path="url(#a)"><path d="M15.958 5.795a.849.849 0 00-.732-.585l-4.618-.419L8.782.516a.85.85 0 00-1.564 0L5.392 4.791l-4.619.418a.851.851 0 00-.482 1.489l3.49 3.061-1.029 4.534a.849.849 0 001.265.919L8 12.831l3.982 2.378a.85.85 0 001.265-.919l-1.029-4.531 3.491-3.06a.851.851 0 00.249-.9zm20 0a.849.849 0 00-.732-.585l-4.618-.419L28.782.516a.85.85 0 00-1.564 0l-1.826 4.275-4.619.418a.851.851 0 00-.482 1.489l3.49 3.061-1.029 4.534a.849.849 0 001.265.919L28 12.831l3.982 2.378a.85.85 0 001.265-.919l-1.029-4.531 3.491-3.06a.851.851 0 00.249-.9zm20 0a.849.849 0 00-.732-.585l-4.618-.419L48.782.516a.85.85 0 00-1.564 0l-1.826 4.275-4.619.418a.851.851 0 00-.482 1.489l3.49 3.061-1.029 4.534a.849.849 0 001.265.919L48 12.831l3.982 2.378a.85.85 0 001.265-.919l-1.029-4.531 3.491-3.06a.851.851 0 00.249-.9zm20 0a.849.849 0 00-.732-.585l-4.618-.419L68.782.516a.85.85 0 00-1.564 0l-1.826 4.275-4.619.418a.851.851 0 00-.482 1.489l3.49 3.061-1.029 4.534a.849.849 0 001.265.919L68 12.831l3.982 2.378a.85.85 0 001.265-.919l-1.029-4.531 3.491-3.06a.851.851 0 00.249-.9zm20 0a.849.849 0 00-.732-.585l-4.618-.419L88.782.516a.85.85 0 00-1.564 0l-1.826 4.275-4.619.418a.851.851 0 00-.482 1.489l3.49 3.061-1.029 4.534a.849.849 0 001.265.919L88 12.831l3.982 2.378a.85.85 0 001.265-.919l-1.029-4.531 3.491-3.06a.851.851 0 00.249-.9zm0 0" fill="#ffc107"/></g></svg>