<svg xmlns="http://www.w3.org/2000/svg" width="22" height="8" viewBox="0 0 22 8"><g transform="translate(-113.596 -81.348)"><g transform="translate(123.596 81.411)"><g transform="translate(3.116 0)"><g transform="translate(8.424)"><path d="M457.34,86.669V83.017s.024-.152.13-.152h-.2a.351.351,0,0,0-.26-.478V87.3a.351.351,0,0,0,.26-.478h.2C457.364,86.821,457.34,86.669,457.34,86.669Z" transform="translate(-457.01 -82.387)" fill="#fff"/></g><path d="M339.509,82.387c-.447.114-.289.477-.289.477H339c.118,0,.145.151.145.151v3.212h-.824V84.87H338.3v0h-.324c-.446,0-.807.208-.807.465h0v.26h-1.53l.78-.816s.386-.53,0-.848a1.34,1.34,0,0,0-.912-.258s-1.149.11-.5,1l0,0a.287.287,0,0,0,.147.062c.069-.008.109-.059.09-.113a.152.152,0,0,0-.159-.085.108.108,0,0,0-.085.051l-.05-.287a.342.342,0,0,1,.036-.226.533.533,0,0,1,.531-.24c.57.01.71.247.71.247s.145.157-.069.462a1.325,1.325,0,0,1-.344.322,3.244,3.244,0,0,0-.806.729v.356h2.526v-.01h0v-.606h.4v.9H336.4v.628l-.208.177-.169-.144v-.662h-1.968l.544-1.458s.358-.726-.825-.9a1.712,1.712,0,0,0-.535.025.775.775,0,0,1-.465-.121.435.435,0,0,0,.294.233h0a.6.6,0,0,0-.364.181c-.2.257-.337.27-.026.621s.359.278.386.51c0,0,.14-.177-.053-.465s.193-.495.474-.49a.664.664,0,0,0,.076,0,.59.59,0,0,1,.381.14.291.291,0,0,1,.093.33l-.522,1.4h-1.388l0-3.212s.026-.151.145-.151h-.224s.158-.364-.289-.477l0,4.285.368,0h1.43c.058.155.233.388.762.515a.651.651,0,0,1-.27-.515h1.607v.239a.1.1,0,0,0,.04.076l.452.384a.08.08,0,0,0,.09,0l.491-.418a.1.1,0,0,0,.04-.076v-.205h2.736Z" transform="translate(-331.761 -82.387)" fill="#fff"/></g><g transform="translate(0 0)"><path d="M282.82,82.865h-.2c.106,0,.13.152.13.152v3.756h-.366v-.535l-.856-.006a.473.473,0,0,0-.239-.167c.053.319-.72.614-.72.614h1.484l.012.1c0,.254.326.46.723.46h.143l.148.09V82.387A.351.351,0,0,0,282.82,82.865Z" transform="translate(-280.569 -82.387)" fill="#fff"/></g></g><g transform="translate(113.596 81.348)"><g transform="translate(0 0)"><path d="M121.5,89.348H113.6v-8H121.5Zm-7.713-.223h7.52V81.571h-7.52Z" transform="translate(-113.596 -81.348)" fill="#fff"/></g><g transform="translate(0.084 1.613)"><path d="M122.712,101.658a3.364,3.364,0,0,0-2.718-1.365,5.25,5.25,0,0,0-2.5.751c-1.262.762-2.524,1.592-2.524,1.592h0l1.114.625a6.469,6.469,0,0,0,2.212,1.006,6.344,6.344,0,0,0,.792.138,3.185,3.185,0,0,0,1.65-.249A1.908,1.908,0,0,0,122,102.3a1.234,1.234,0,0,0-.953-1.146,1.5,1.5,0,0,0-.9-.031,1.155,1.155,0,0,0-.76.651,1.367,1.367,0,0,0-.044.981,1.145,1.145,0,0,0,1.334.806l.031,0a1.069,1.069,0,0,0,.943-1.291.685.685,0,0,0-.021-.116v0h0a.688.688,0,1,0-.179.671.831.831,0,0,1-.751.376.857.857,0,0,1-.828-.618.914.914,0,0,1-.009-.621.85.85,0,0,1,.3-.4.972.972,0,0,1,.853-.144,1.017,1.017,0,0,1,.8.875v0a1.293,1.293,0,0,1-.154.761,2.537,2.537,0,0,1-2.025.893,4,4,0,0,1-1.68-.4,6.526,6.526,0,0,1-1.626-.955h0l1.387-1a4.6,4.6,0,0,1,2.286-.785,2.649,2.649,0,0,1,1.546.375,6.243,6.243,0,0,1,.989.8,3.407,3.407,0,0,0,1.888.841h0A5.067,5.067,0,0,1,122.712,101.658Zm-1.293.36h-.049l-.293.293.287.287h.055v.072h-.253V102.6h.063l-.24-.24h-.1v.336H120.6v-.742h.292v.28h.131l.216-.216h-.068v-.072h.14l0,0,0,0h.108Z" transform="translate(-114.968 -100.293)" fill="#fff"/></g></g><g transform="translate(124.396 87.693)"><g transform="translate(0 0.028)"><path d="M282.02,168.629a.571.571,0,0,0-.247-.149l.392-.518h-.425l-.377.5h-.476v-.491h-.318v1.424h.318v-.56h.677l.023,0a.285.285,0,0,1,.225.081.715.715,0,0,1,.135.5h.318A1.075,1.075,0,0,0,282.02,168.629Z" transform="translate(-280.569 -167.962)" fill="#fff"/></g><g transform="translate(1.871 0)"><path d="M311.459,167.758a.717.717,0,0,0-.144.452v.77h.318v-.574h1.092v.567h.318V167.5h-.958A.75.75,0,0,0,311.459,167.758Zm1.266.274h-1.046a.241.241,0,0,1,.015-.022.481.481,0,0,1,.392-.139h.639Z" transform="translate(-311.315 -167.498)" fill="#fff"/></g><g transform="translate(7.635 0)"><path d="M406.141,167.758a.716.716,0,0,0-.144.452v.77h.318v-.574h1.092v.567h.318V167.5h-.958A.75.75,0,0,0,406.141,167.758Zm1.266.274h-1.046a.24.24,0,0,1,.015-.022.481.481,0,0,1,.392-.139h.64Z" transform="translate(-405.997 -167.498)" fill="#fff"/></g><g transform="translate(3.806 0.004)"><path d="M344.44,168.1h-1.023v-.53H343.1v1.456h.318v-.552h1.023v.545h.318v-1.463h-.318Z" transform="translate(-343.098 -167.558)" fill="#fff"/></g><g transform="translate(5.715 0.004)"><path d="M375.807,168.1h-1.023v-.53h-.318v1.456h.318v-.552h1.023v.545h.318v-1.463h-.318Z" transform="translate(-374.465 -167.558)" fill="#fff"/></g><g transform="translate(9.521 0)"><path d="M438.354,168.29a.348.348,0,0,1-.064.23.265.265,0,0,1-.184.081h-.794v-1.1h-.318v1.476h1.112a.553.553,0,0,0,.4-.185.73.73,0,0,0,.162-.5Z" transform="translate(-436.994 -167.498)" fill="#fff"/></g></g></g></svg>